<svg xmlns="http://www.w3.org/2000/svg" viewBox="0 0 332482 226697" shape-rendering="geometricPrecision" text-rendering="geometricPrecision" image-rendering="optimizeQuality" fill-rule="evenodd" clip-rule="evenodd"><path d="M275434 156416c-2672-2628-2708-6925-80-9596 2628-2672 6924-2708 9596-80l18693 18466c2672 2628 2708 6924 80 9596s-6924 2708-9596 80l-18693-18466zm-96767-31510c-1563 766-3118 1605-4669 2512-4666 2726-9261 6064-13937 9894l-10004-11463c3453-3206 7208-6130 11182-8714 3170-2061 6473-3896 9866-5477 1365-685 2747-1329 4148-1930-6605-11687-16101-20079-26864-25243-10757-5161-22805-7143-34532-6009-11656 1127-22964 5352-32321 12614-10812 8391-19041 20929-22197 37537l-987 5196-5177 908c-5069 889-9592 2109-13569 3655-3854 1498-7279 3334-10277 5503-2400 1736-4473 3684-6232 5791-5447 6527-7971 14701-7911 22967 61 8399 2795 16880 7850 23865 1873 2587 4060 4959 6543 7032l-12 15c2492 2076 5336 3790 8551 5116 3156 1303 6664 2236 10540 2780h150116c7310-1762 13759-4138 19238-7206 5441-3047 9889-6753 13226-11192 5175-6884 7718-16630 7827-26628 115-10487-2436-21014-7424-28683-1434-2205-2991-4197-4651-5985-7468-8041-16956-11558-26794-11624-7149-48-14522 1669-21530 4771zm11681-19202c3303-517 6617-776 9908-754 13895 93 27303 5069 37870 16447 2212 2383 4307 5068 6259 8069 848 1304 1643 2664 2384 4072 982-1779 1836-3638 2549-5564 1647-4448 2548-9276 2548-14331 0-11372-4609-21668-12060-29120s-17747-12061-29120-12061c-7191 0-13922 1815-19756 5006-4882 2670-9171 6316-12609 10680 4626 5078 8692 10928 12027 17556zm62477 45359c1001 5058 1483 10292 1426 15482-143 13050-3671 26052-10863 35620-4689 6238-10714 11319-17932 15360-6961 3898-15063 6849-24168 8963l-1697 209H48373l-953-90c-5522-702-10540-2007-15078-3881-4654-1921-8812-4437-12499-7513h-30c-3469-2895-6512-6191-9103-9771C3815 195914 87 184279 2 172704c-86-11709 3559-23370 11424-32793 2551-3056 5537-5866 8972-8351 3999-2895 8575-5346 13730-7349 3563-1385 7358-2542 11386-3469 4548-18075 14263-32006 26732-41682 11661-9050 25718-14312 40182-15711 14392-1391 29223 1063 42512 7439 4190 2011 8225 4408 12042 7191 4591-5614 10255-10333 16684-13850 8055-4406 17266-6911 27021-6911 15580 0 29687 6316 39898 16527s16527 24318 16527 39897c0 6865-1237 13459-3501 19571-2346 6335-5799 12136-10122 17165-210 245-432 473-664 685zM139009 39325c-2672-2628-2708-6924-80-9596s6924-2708 9596-80l18693 18466c2672 2628 2708 6924 80 9596s-6924 2708-9596 80l-18693-18466zm73514-32521c-15-3743 3008-6790 6752-6805 3743-15 6790 3008 6805 6752l161 26276c15 3743-3008 6790-6752 6805-3743 15-6790-3008-6805-6752l-161-26276zm75687 25763c2672-2628 6968-2592 9596 80s2592 6969-80 9596l-18693 18466c-2672 2628-6969 2592-9597-80s-2591-6968 80-9596l18693-18466zm37468 72049c3743-15 6790 3008 6805 6752 15 3743-3008 6790-6752 6805l-26276 161c-3743 15-6790-3008-6805-6752-15-3743 3008-6790 6752-6805l26276-161z" fill-rule="nonzero"/></svg>