<?xml version="1.0"?>
<svg xmlns="http://www.w3.org/2000/svg" width="512" height="512" viewBox="0 0 128 128"><path d="M115.993,69.315A18.19,18.19,0,0,0,89,60.914a22.66,22.66,0,0,0-14.965-11.7A20.846,20.846,0,0,0,35.47,44.86a16.663,16.663,0,0,0-24.531,7.7,11.471,11.471,0,0,0,.532,22.929H36.559A12.448,12.448,0,0,0,47.31,94.243h68.221a12.468,12.468,0,0,0,.462-24.928ZM3.5,64.016a7.979,7.979,0,0,1,7.971-7.971c.168,0,.333.014.563.03a1.749,1.749,0,0,0,1.8-1.219A13.159,13.159,0,0,1,35,48.882a1.75,1.75,0,0,0,2.773-.674,17.347,17.347,0,0,1,32.414.432c-.482-.03-.968-.05-1.457-.05A22.936,22.936,0,0,0,46,69.375a12.4,12.4,0,0,0-6.4,2.611H11.471A7.979,7.979,0,0,1,3.5,64.016ZM115.531,90.743H47.31a8.968,8.968,0,0,1,0-17.936l.3.017a1.722,1.722,0,0,0,1.265-.481,1.754,1.754,0,0,0,.543-1.24A19.286,19.286,0,0,1,72.236,52.417l.083.016A19.211,19.211,0,0,1,86.692,64.278a1.75,1.75,0,0,0,2.774.675,14.689,14.689,0,0,1,23.636,6.67,1.818,1.818,0,0,0,1.863,1.213c.187-.014.375-.029.566-.029a8.968,8.968,0,1,1,0,17.936Z"/></svg>
