<?xml version="1.0" encoding="iso-8859-1"?>
<!-- Generator: Adobe Illustrator 19.0.0, SVG Export Plug-In . SVG Version: 6.00 Build 0)  -->
<svg version="1.1" id="Capa_1" xmlns="http://www.w3.org/2000/svg" xmlns:xlink="http://www.w3.org/1999/xlink" x="0px" y="0px"
	 viewBox="0 0 512 512" style="enable-background:new 0 0 512 512;" xml:space="preserve">
<g>
	<g>
		<path d="M412.864,224.032C397.952,150.016,333.088,96,256,96c-64.032,0-121.504,38.112-146.688,96.032
			C48.8,193.472,0,243.136,0,304c0,61.76,50.24,112,112,112h304c52.928,0,96-43.072,96-96
			C512,266.016,468.8,222.656,412.864,224.032z M416,384H112c-44.096,0-80-35.872-80-80s35.904-80,80-80c1.28,0,3.392,0,4.128,0.16
			c8.096,2.08,16.288-2.464,19.008-10.272C152.928,162.528,201.504,128,256,128c66.016,0,120.8,49.536,127.456,115.2
			c0.416,4.448,2.72,8.512,6.304,11.2c3.584,2.688,8.16,3.744,12.544,2.912C406.496,256.544,411.296,256,416,256
			c35.296,0,64,28.704,64,64C480,355.296,451.296,384,416,384z"/>
	</g>
</g>
<g>
</g>
<g>
</g>
<g>
</g>
<g>
</g>
<g>
</g>
<g>
</g>
<g>
</g>
<g>
</g>
<g>
</g>
<g>
</g>
<g>
</g>
<g>
</g>
<g>
</g>
<g>
</g>
<g>
</g>
</svg>
