<svg xmlns="http://www.w3.org/2000/svg" viewBox="0 0 333332 283105" shape-rendering="geometricPrecision" text-rendering="geometricPrecision" image-rendering="optimizeQuality" fill-rule="evenodd" clip-rule="evenodd"><path d="M127695 262433c4967 0 8994 4474 8994 9993s-4027 9993-8994 9993h-25373c-4967 0-8994-4474-8994-9993 0-5518 4027-9993 8994-9993h25373zm-88915-78144c4226 3536 4785 9828 1249 14053s-9828 4785-14053 1249c-4549-3796-8538-8116-11935-12811C5003 174290 114 159036 3 143861c-113-15349 4667-30637 14977-42991 3345-4008 7260-7692 11763-10950 5242-3794 11242-7007 18000-9635 4671-1816 9646-3333 14928-4548 5963-23697 18699-41960 35046-54646C110006 9226 128433 2327 147396 494c18868-1824 38311 1394 55733 9752 19051 9141 35647 24359 46422 45775 4330-678 8675-1018 12990-989 18216 122 35795 6645 49648 21563 2901 3124 5646 6644 8206 10578 8681 13348 13124 31167 12933 48611-187 17111-4813 34154-14242 46699-3298 4398-9538 5289-13936 1991s-5289-9538-1991-13936c6784-9025 10118-21802 10261-34909 150-13748-3193-27549-9732-37604-1879-2889-3920-5501-6098-7846-9790-10542-22229-15152-35127-15239-9378-63-19048 2190-28238 6260-2044 1003-4079 2101-6109 3287-6114 3574-12138 7949-18270 12971l-13116-15029c4527-4204 9450-8036 14659-11424 4157-2704 8489-5110 12938-7183 1789-896 3598-1741 5434-2529-8659-15321-21109-26324-35219-33093-14102-6766-29897-9365-45271-7879-15281 1478-30106 7017-42374 16537-14175 11001-24963 27438-29100 49211l-1294 6812-6787 1191c-6645 1166-12576 2764-17791 4792-5051 1963-9542 4370-13472 7215-3147 2277-5865 4831-8170 7593-7141 8555-10450 19272-10370 30109 80 11011 3665 22129 10291 31287 2455 3393 5324 6502 8578 9219zm48745 11105c-4029 0-7295-4474-7295-9993s3266-9993 7295-9993h180564c4029 0 7295 4474 7295 9993 0 5518-3266 9993-7295 9993H87525zm-32228 42063c-4967 0-8994-4474-8994-9993 0-5518 4027-9993 8994-9993h142469c4967 0 8994 4474 8994 9993s-4027 9993-8994 9993H55297zm187217 0c-4967 0-8994-4474-8994-9993 0-5518 4027-9993 8994-9993h32065c4967 0 8994 4474 8994 9993s-4027 9993-8994 9993h-32065zm53912 25740c4948 21 8943 4496 8924 9993s-4047 9937-8994 9916l-127417-725c-4947-21-8943-4496-8924-9993s4046-9937 8994-9916l127416 725z" fill-rule="nonzero"/></svg>