<svg xmlns="http://www.w3.org/2000/svg" viewBox="0 0 333334 299153" shape-rendering="geometricPrecision" text-rendering="geometricPrecision" image-rendering="optimizeQuality" fill-rule="evenodd" clip-rule="evenodd"><path d="M64667 194777c5454 690 9317 5671 8627 11126-690 5454-5671 9317-11125 8627-7239-921-13818-2632-19769-5088-6154-2541-11617-5838-16424-9850-4549-3797-8538-8117-11935-12811C5003 174291 114 159036 3 143862c-113-15349 4667-30637 14977-42991 3345-4007 7260-7692 11763-10950 5242-3794 11242-7008 18000-9635 4671-1816 9646-3332 14928-4548 5963-23696 18699-41961 35046-54647C110006 9226 128434 2327 147396 494c18869-1824 38311 1394 55734 9753 19051 9141 35647 24359 46422 45776 4330-678 8675-1018 12989-989 18217 122 35795 6646 49649 21563 2901 3124 5646 6643 8206 10578 8681 13348 13124 31167 12933 48611-187 17110-4813 34154-14243 46699-6147 8178-14046 14839-23509 20137-9126 5110-19747 8980-31684 11750-5368 1229-10717-2127-11945-7495s2127-10717 7495-11945c10059-2335 18906-5537 26376-9720 7134-3995 12965-8852 17340-14673 6784-9025 10118-21803 10261-34910 150-13749-3193-27548-9732-37604-1879-2889-3920-5501-6097-7846-9791-10542-22229-15153-35128-15239-9380-63-19050 2191-28241 6262-2043 1003-4076 2100-6106 3285-6114 3574-12138 7948-18270 12971l-13116-15029c4526-4203 9450-8035 14659-11423 4158-2705 8491-5111 12941-7184 1788-896 3597-1740 5432-2528-8659-15321-21109-26324-35219-33093-14102-6766-29897-9365-45272-7879-15281 1478-30106 7017-42374 16537-14175 11001-24963 27438-29100 49211l-1294 6812-6787 1191c-6645 1166-12576 2764-17791 4792-5051 1963-9542 4370-13472 7215-3147 2277-5865 4832-8170 7593-7141 8556-10450 19272-10370 30109 80 11011 3664 22129 10290 31286 2456 3393 5324 6503 8579 9219 3298 2752 7022 5005 11194 6727 4374 1806 9263 3070 14694 3761zm86230 21622c5945 27586 23789 41377 23789 55167 0 13795-5945 27586-23789 27586-17841 0-23786-13791-23786-27586 0-13791 17841-27582 23786-55167zm52808-72881c5944 29951 23788 44924 23788 59897 0 14978-5944 29951-23788 29951-17842 0-23787-14973-23787-29951 0-14973 17842-29946 23787-59897zm-79640-2904c4276 19842 17110 29761 17110 39680 0 9922-4276 19841-17110 19841-12833 0-17109-9919-17109-19841 0-9919 12833-19838 17109-39680z" fill-rule="nonzero"/></svg>