<svg xmlns="http://www.w3.org/2000/svg" viewBox="0 0 333333 185881" shape-rendering="geometricPrecision" text-rendering="geometricPrecision" image-rendering="optimizeQuality" fill-rule="evenodd" clip-rule="evenodd"><path d="M141944 30898c5993-8524 13533-15305 21986-20314 9915-5876 21081-9322 32471-10296 15970-1367 32455 2143 46598 10638 11516 6918 21444 17106 28241 30614 3209-503 6429-754 9627-733 13500 91 26528 4925 36795 15981 2150 2315 4185 4923 6081 7839 6433 9893 9726 23099 9585 36027-139 12680-3567 25311-10556 34609-4556 6062-10409 10997-17421 14924-6763 3787-14635 6655-23482 8709l-1649 203h-41686c-573 901-1258 1882-2059 2947-4556 6062-10409 10998-17421 14924-6763 3787-14635 6655-23482 8708l-1649 203H46999l-926-87c-5365-683-10241-1951-14650-3771-4521-1866-8561-4311-12143-7300h-29c-3371-2813-6328-6015-8846-9494C3707 155972 83 144667 1 133421c-83-11376 3458-22706 11100-31861 2479-2970 5380-5700 8717-8115 3885-2813 8331-5194 13341-7141 3461-1345 7148-2469 11061-3370 1666-6636 4038-12681 6992-18130 8133-15004 20652-25630 34991-31778 14189-6084 30163-7728 45382-4837 3509 667 6973 1569 10361 2707zm29508-7585c-5941 3521-11304 8127-15739 13802 6556 3803 12652 8694 18008 14692 4311 4826 8102 10331 11220 16517 8663-1363 17402-898 25602 1796 10338 3397 19715 10239 26903 21291 5667 8713 8897 19968 9496 31338 382 7267-312 14658-2132 21538h34619c7101-1711 13367-4021 18690-7001 5287-2961 9610-6561 12852-10874 5027-6688 7498-16158 7604-25872 111-10189-2366-20417-7212-27868-1393-2142-2906-4077-4519-5814-7255-7813-16474-11230-26034-11294-6946-46-14108 1621-20915 4634-1520 745-3031 1561-4539 2442-4533 2650-8998 5891-13541 9613l-9720-11138c3354-3115 7003-5956 10863-8466 3084-2006 6298-3791 9599-5329 1322-663 2661-1287 4018-1870-5386-9531-12749-16801-21154-21850-11401-6849-24778-9670-37803-8556-9210 788-18209 3556-26165 8271zm55894 125609c154-380 337-744 549-1090 3360-7021 4746-15705 4293-24332-468-8895-2893-17544-7123-24048-5196-7989-11841-12891-19092-15273-8307-2729-17546-2281-26461 550-2077 659-4147 1456-6196 2379-1928 951-3833 2013-5727 3175-3962 2432-7960 5382-12072 8750l-9720-11138c4236-3934 8889-7401 13799-10298 2281-1346 4633-2574 7041-3676 1204-598 2418-1162 3644-1693-2213-3923-4752-7451-7553-10587-4619-5172-10030-9353-15928-12550-5683-3081-11749-5204-17937-6379-12387-2353-25367-1023-36877 3912-11361 4871-21292 13310-27758 25239-2996 5525-5253 11773-6575 18730l-959 5048-5029 882c-4925 864-9320 2048-13185 3551-3743 1455-7072 3239-9984 5347-2333 1688-4348 3581-6056 5627-5292 6341-7744 14283-7685 22315 59 8160 2716 16400 7626 23187 1820 2515 3946 4820 6357 6833l-12 14c2422 2017 5185 3681 8308 4971 3067 1266 6474 2172 10239 2700h145856c7101-1712 13367-4021 18690-7002 5287-2961 9610-6561 12852-10874 430-572 939-1338 1517-2279 464-755 848-1419 1156-1992z" fill-rule="nonzero"/></svg>