<?xml version="1.0" encoding="iso-8859-1"?>
<!-- Generator: Adobe Illustrator 19.0.0, SVG Export Plug-In . SVG Version: 6.00 Build 0)  -->
<svg version="1.1" id="Capa_1" xmlns="http://www.w3.org/2000/svg" xmlns:xlink="http://www.w3.org/1999/xlink" x="0px" y="0px"
	 viewBox="0 0 512 512" style="enable-background:new 0 0 512 512;" xml:space="preserve">
<g>
	<g>
		<g>
			<path d="M202.675,85.333c-47.061,0-85.333,38.272-85.333,85.333c0,43.584,69.013,134.891,76.885,145.152
				c2.005,2.645,5.141,4.181,8.448,4.181c3.307,0,6.443-1.536,8.448-4.181c7.893-10.261,76.885-101.568,76.885-145.152
				C288.008,123.605,249.736,85.333,202.675,85.333z M202.675,291.477c-23.467-32.256-64-93.653-64-120.811
				c0-35.285,28.715-64,64-64s64,28.715,64,64C266.675,197.824,226.141,259.221,202.675,291.477z"/>
			<path d="M508.872,493.803L353.075,338.005c32.384-35.925,52.267-83.285,52.267-135.339C405.341,90.923,314.419,0,202.675,0
				S0.008,90.923,0.008,202.667s90.923,202.667,202.667,202.667c52.032,0,99.392-19.883,135.317-52.245l155.797,155.797
				c2.091,2.069,4.821,3.115,7.552,3.115c2.731,0,5.461-1.045,7.531-3.115C513.032,504.725,513.032,497.963,508.872,493.803z
				 M202.675,384c-99.989,0-181.333-81.344-181.333-181.333S102.685,21.333,202.675,21.333s181.333,81.344,181.333,181.333
				S302.664,384,202.675,384z"/>
			<path d="M202.675,128c-23.531,0-42.667,19.136-42.667,42.667c0,23.531,19.136,42.667,42.667,42.667
				c23.531,0,42.667-19.136,42.667-42.667C245.341,147.136,226.205,128,202.675,128z M202.675,192
				c-11.776,0-21.333-9.579-21.333-21.333c0-11.755,9.557-21.333,21.333-21.333s21.333,9.579,21.333,21.333
				C224.008,182.421,214.451,192,202.675,192z"/>
		</g>
	</g>
</g>
<g>
</g>
<g>
</g>
<g>
</g>
<g>
</g>
<g>
</g>
<g>
</g>
<g>
</g>
<g>
</g>
<g>
</g>
<g>
</g>
<g>
</g>
<g>
</g>
<g>
</g>
<g>
</g>
<g>
</g>
</svg>
