<svg xmlns="http://www.w3.org/2000/svg" viewBox="0 0 333333 309587" shape-rendering="geometricPrecision" text-rendering="geometricPrecision" image-rendering="optimizeQuality" fill-rule="evenodd" clip-rule="evenodd"><path d="M107148 265127c1109-5797 6707-9598 12505-8490 5798 1109 9598 6707 8490 12505l-3660 18955c-1109 5797-6707 9598-12505 8490-5798-1109-9598-6707-8490-12505l3660-18955zm-42481-70349c5454 690 9317 5671 8627 11125s-5671 9317-11125 8627c-7239-921-13818-2632-19768-5089-6154-2540-11617-5838-16424-9850-4549-3796-8539-8116-11935-12811C5003 174290 115 159036 3 143861c-112-15349 4666-30637 14977-42991 3345-4008 7260-7692 11763-10950 5242-3794 11242-7007 18000-9635 4671-1816 9646-3332 14927-4548 5963-23696 18700-41961 35046-54646C110005 9226 128433 2327 147395 494c18868-1824 38311 1393 55734 9752 19051 9141 35647 24360 46422 45776 4330-678 8675-1018 12989-989 18217 122 35795 6645 49649 21563 2901 3123 5646 6643 8206 10578 8681 13348 13124 31167 12933 48611-187 17110-4813 34154-14242 46699-6147 8179-14046 14839-23509 20137-9126 5111-19747 8980-31684 11751-5368 1228-10717-2127-11945-7495s2127-10717 7495-11945c10059-2335 18906-5538 26376-9721 7133-3994 12965-8853 17340-14673 6784-9025 10117-21803 10261-34909 150-13748-3193-27549-9732-37604-1879-2889-3920-5501-6097-7845-9791-10542-22229-15153-35127-15239-9376-63-19044 2189-28233 6258-2046 1004-4082 2102-6114 3290-6115 3574-12139 7949-18271 12971l-13116-15029c4527-4204 9450-8035 14659-11424 4159-2705 8492-5112 12943-7185 1787-896 3596-1739 5430-2527-8659-15322-21109-26324-35219-33094-14102-6765-29897-9365-45272-7878-15281 1477-30106 7017-42374 16537-14175 11001-24963 27439-29100 49211l-1294 6812-6787 1191c-6645 1166-12576 2764-17791 4791-5050 1963-9542 4370-13472 7215-3147 2277-5865 4831-8170 7593-7141 8556-10450 19272-10370 30109 81 11011 3665 22130 10291 31287 2455 3393 5324 6503 8579 9219 3298 2752 7022 5005 11194 6727 4374 1806 9263 3070 14693 3761zm43598-48882c1109-5798 6707-9599 12505-8490 5797 1109 9598 6707 8490 12505l-3660 18955c-1109 5797-6707 9598-12505 8490-5798-1109-9598-6707-8490-12505l3660-18954zm56621 9795c1109-5797 6707-9598 12505-8490 5797 1109 9598 6707 8490 12505l-3660 18954c-1109 5798-6707 9599-12505 8490s-9598-6707-8490-12505l3660-18954zm54017 15003c1109-5798 6707-9599 12505-8490s9598 6707 8490 12505l-3660 18955c-1109 5798-6707 9598-12505 8490-5797-1109-9598-6707-8490-12505l3660-18955zm-14582 59863c1109-5798 6707-9599 12505-8490 5797 1109 9598 6707 8490 12505l-3661 18954c-1109 5798-6707 9599-12505 8490s-9599-6707-8490-12505l3660-18954zm-55618-12848c1109-5798 6707-9599 12505-8490 5797 1109 9598 6707 8490 12505l-3661 18955c-1109 5798-6707 9598-12505 8490-5798-1109-9599-6707-8490-12505l3660-18955zm-53165-12808c1109-5798 6707-9598 12505-8490 5798 1109 9598 6707 8490 12505l-3660 18955c-1109 5798-6707 9599-12505 8490-5797-1109-9598-6707-8490-12505l3660-18955zm64775 73035c1109-5798 6707-9598 12505-8490 5797 1109 9598 6707 8490 12505l-3660 18955c-1109 5798-6707 9599-12505 8490s-9599-6707-8490-12505l3660-18955z" fill-rule="nonzero"/></svg>