<svg xmlns="http://www.w3.org/2000/svg" viewBox="0 0 1333.34 1333.34" shape-rendering="geometricPrecision" text-rendering="geometricPrecision" image-rendering="optimizeQuality" fill-rule="evenodd" clip-rule="evenodd"><path d="M637.58 484.37l-74.92-74.92-6.3 95.56 81.22 81.22V484.38zM349.02 380.82l-138.87 5.21c-16.18.57-29.76-12.08-30.32-28.26-.57-16.17 12.08-29.75 28.26-30.32l84.41-3.17-95.55-95.56c-11.48-11.48-11.48-30.1 0-41.58 11.48-11.48 30.1-11.48 41.58 0l94.13 94.13 1.26-79.08c.25-16.17 13.57-29.08 29.75-28.83 16.17.26 29.08 13.57 28.83 29.75l-2.17 135.84 121.91 121.91 7-106.17c.81-12.94 11.96-22.77 24.9-21.96 5.94.37 11.23 2.93 15.13 6.83l.04-.03 78.31 78.31V225.9l-97.64-94.57c-11.61-11.29-11.87-29.85-.57-41.46 11.29-11.61 29.86-11.87 41.46-.57l56.75 54.97V29.42c0-16.24 13.17-29.41 29.41-29.41 16.24 0 29.41 13.17 29.41 29.41v116.87l61.92-57.44c11.86-11.04 30.43-10.37 41.46 1.49 11.04 11.86 10.37 30.43-1.49 41.46l-101.89 94.51v183.3l81.45-71.39c9.74-8.52 24.56-7.54 33.08 2.2 3.89 4.45 5.8 9.96 5.8 15.44h.08V474.3l141.77-141.78-2.17-135.84c-.25-16.17 12.65-29.49 28.83-29.74 16.17-.26 29.49 12.65 29.74 28.83l1.26 79.09 81.25-81.25c11.48-11.48 30.1-11.48 41.58 0 11.48 11.48 11.48 30.1 0 41.58l-82.67 82.67 84.41 3.17c16.18.57 28.82 14.15 28.26 30.32-.57 16.17-14.15 28.82-30.32 28.25l-138.87-5.21L871.5 502.81l100.74 6.63c12.94.81 22.77 11.96 21.96 24.9a23.396 23.396 0 01-6.83 15.13l.03.03-78.97 78.97h199.05l94.57-97.64c11.29-11.61 29.85-11.87 41.46-.57 11.61 11.29 11.87 29.86.57 41.46l-54.97 56.75h114.85c16.24 0 29.41 13.17 29.41 29.41 0 16.24-13.17 29.41-29.41 29.41h-116.87l57.44 61.92c11.04 11.86 10.37 30.43-1.49 41.46-11.86 11.03-30.43 10.36-41.46-1.5l-94.51-101.89H917.91l70.81 80.79c8.52 9.74 7.54 24.55-2.2 33.07-4.45 3.89-9.96 5.8-15.44 5.8v.08H858.42l142.44 142.44 135.84-2.17c16.17-.25 29.49 12.65 29.74 28.83.26 16.17-12.65 29.49-28.83 29.75l-79.09 1.26 81.25 81.25c11.48 11.48 11.48 30.1 0 41.58-11.48 11.48-30.1 11.48-41.58 0l-82.67-82.67-3.17 84.41c-.57 16.18-14.15 28.83-30.32 28.26-16.17-.57-28.82-14.15-28.25-30.32l5.21-138.87-134.5-134.5-6.99 106.16c-.81 12.94-11.96 22.77-24.9 21.96a23.396 23.396 0 01-15.13-6.83l-.04.04-81.01-81.02v192.24l101.89 94.51c11.86 11.04 12.53 29.6 1.49 41.46s-29.6 12.53-41.46 1.49l-61.92-57.44v135.09c0 16.24-13.17 29.41-29.41 29.41-16.24 0-29.41-13.17-29.41-29.41v-133.07l-56.75 54.97c-11.61 11.29-30.17 11.03-41.46-.57-11.29-11.61-11.03-30.17.57-41.46l97.64-94.57V909.91l-78.75 69.02c-9.74 8.52-24.56 7.54-33.08-2.21-3.89-4.45-5.8-9.95-5.8-15.43h-.08V854.41L389.95 984.35l5.21 138.87c.57 16.18-12.08 29.76-28.26 30.32-16.17.57-29.75-12.08-30.32-28.26l-3.17-84.41-95.55 95.55c-11.48 11.48-30.1 11.48-41.58 0-11.48-11.48-11.48-30.1 0-41.58l94.13-94.13-79.09-1.26c-16.17-.25-29.08-13.57-28.83-29.75.25-16.17 13.57-29.08 29.75-28.83l135.84 2.17 127.99-127.99-111.59-7.35c-12.94-.81-22.77-11.96-21.96-24.9.37-5.94 2.93-11.22 6.83-15.13l-.03-.04 80.35-80.35H244.53l-94.51 101.89c-11.04 11.86-29.6 12.53-41.46 1.5-11.86-11.04-12.53-29.6-1.49-41.46l57.44-61.92H29.42c-16.24 0-29.41-13.17-29.41-29.41 0-16.24 13.17-29.41 29.41-29.41h133.07l-54.97-56.75c-11.29-11.61-11.03-30.17.57-41.46 11.61-11.29 30.17-11.03 41.46.57l94.57 97.64h173.46l-69.6-79.41c-8.52-9.74-7.54-24.56 2.2-33.08 4.45-3.89 9.95-5.8 15.44-5.8v-.09h112.66L349 380.82zm176.32 176.32H417.42l62.51 71.33h116.73l-71.32-71.33zm254.97 254.98l-83.92-83.92v101.85l77.63 77.63 6.3-95.56zm-41.68-124.84l72.7 72.7h107.92l-63.72-72.7H738.62zm-242.44 0l-76.96 76.96 100.98 6.65 83.61-83.61H496.19zm249.6-58.81h96.08l75.58-75.59-90.14-5.94-81.52 81.52zM566.92 807.34v102.14l70.66-61.93V736.68l-70.66 70.66zm129.47-212.63l73.37-73.37v-113.7l-73.37 64.3V594.7z" fill-rule="nonzero"/></svg>