<svg xmlns="http://www.w3.org/2000/svg" viewBox="0 0 323654 333333" shape-rendering="geometricPrecision" text-rendering="geometricPrecision" image-rendering="optimizeQuality" fill-rule="evenodd" clip-rule="evenodd"><path d="M62789 189122c5296 670 9046 5506 8376 10802s-5506 9046-10802 8377c-7028-894-13416-2556-19194-4941-5925-2446-11217-5648-15910-9564h-38c-4417-3687-8291-7881-11589-12439C4856 169229 109 154418 1 139683c-109-14903 4531-29747 14543-41743 3248-3892 7049-7469 11420-10632 5090-3684 10915-6804 17478-9355 4535-1763 9367-3236 14494-4416 5790-23008 18156-40742 34028-53059C106809 8958 124702 2258 143113 478c18321-1771 37199 1354 54116 9470 18498 8875 34613 23653 45074 44446 4204-658 8423-988 12612-960 17687 119 34756 6453 48207 20937 2817 3033 5483 6452 7967 10271 8428 12960 12743 30262 12558 47200-181 16614-4673 33162-13829 45343-4525 6020-10028 11191-16428 15580-6213 4260-13308 7803-21209 10688-5024 1821-10573-776-12394-5799-1821-5024 775-10573 5799-12394 6335-2313 11987-5128 16889-8489 4713-3231 8695-6947 11880-11184 6587-8763 9823-21169 9963-33896 146-13349-3100-26748-9450-36512-1825-2806-3807-5342-5920-7618-9506-10236-21583-14713-34107-14796-9106-61-18495 2127-27419 6080-1985 974-3959 2039-5930 3191-5939 3470-11788 7719-17741 12594l-12735-14593c4396-4082 9176-7803 14234-11092 4041-2628 8250-4966 12575-6980 1732-869 3486-1686 5264-2450-8408-14876-20496-25559-34197-32132-13693-6569-29029-9093-43957-7650-14837 1434-29232 6813-41143 16057-13764 10681-24238 26641-28255 47782l-1257 6614-6589 1156c-6452 1132-12210 2684-17274 4652-4905 1907-9265 4243-13081 7006-3057 2211-5696 4691-7933 7372-6933 8308-10146 18713-10069 29235 78 10692 3558 21487 9992 30379 2384 3295 5169 6314 8329 8952l-15 18c3173 2643 6793 4824 10884 6513 4246 1753 8994 2981 14267 3652zm101449 72403l22368-79784h57237l-19950 41791 33961 646-82754 109154 15916-71808h-26779zm-44801-94875c3906 18124 15629 27184 15629 36245 0 9064-3906 18124-15629 18124-11722 0-15628-9061-15628-18124 0-9061 11722-18121 15628-36245zm10150 73494c4493 20846 17976 31267 17976 41688 0 10425-4492 20846-17976 20846-13482 0-17974-10421-17974-20846 0-10421 13482-20842 17974-41688zm-52938-22059c4492 20846 17976 31267 17976 41688 0 10424-4492 20846-17976 20846-13482 0-17974-10421-17974-20846 0-10421 13482-20842 17974-41688z" fill-rule="nonzero"/></svg>